<?xml version="1.0" encoding="UTF-8"?>
<svg id="Layer_1" xmlns="http://www.w3.org/2000/svg" version="1.1" xmlns:xlink="http://www.w3.org/1999/xlink" viewBox="0 0 668.6 670.1">
  <!-- Generator: Adobe Illustrator 29.2.1, SVG Export Plug-In . SVG Version: 2.1.0 Build 116)  -->
  <defs>
    <style>
      .st0 {
        fill: #fff;
      }

      .st1 {
        stroke: #fff;
        stroke-miterlimit: 10;
        stroke-width: 5px;
      }

      .st1, .st2 {
        fill: none;
      }

      .st3 {
        fill: #f76706;
      }

      .st4 {
        isolation: isolate;
      }

      .st5 {
        fill: #29e7cd;
      }

      .st6 {
        clip-path: url(#clippath);
      }
    </style>
    <clipPath id="clippath">
      <path class="st2" d="M481,376.3c0,44.4-9.2,78.5-27.5,102.4-18.4,23.9-44.2,35.8-77.6,35.8s-49.7-10.9-66.6-32.8l-3.5,27.8h-75.6V124.9h84.4v135.5c15.7-17.9,36-26.8,60.8-26.8s59.8,12.1,78.1,36.3c18.4,24.2,27.5,58.3,27.5,102.2v4.3h0ZM396.3,370.9c0-26-3.5-44.5-10.4-55.6-6.9-11.1-17.6-16.6-31.9-16.6s-32.2,7.2-39.6,21.8v107.5c7.2,14.3,20.5,21.5,40.1,21.5s32.5-9.7,37.8-29c2.7-9.5,4-26,4-49.5h0Z"/>
    </clipPath>
  </defs>
  <g class="st6">
    <g>
      <path class="st3" d="M57.8,391.5v126c0,0,508.5-4.5,508.5-4.5-.3-1.2-.5-2.5-.6-3.8-.2-6.5,9.8-6.4,10,0,0,.7,0,.4.2,1.2,0,.1.2.5.2.7.1.2.4.6.5.7.2.2.7.6.6.6.2.2.5.3.8.5l62.7-.6v-247.1L57.8,391.5Z"/>
      <polygon class="st5" points="640.6 256.2 57.8 382.5 57.8 111.7 640.6 109.4 640.6 256.2"/>
    </g>
  </g>
  <g class="st4">
    <g class="st4">
      <path class="st0" d="M417.1,37.6c-1.1,5.2-3.2,9.1-6.2,11.7-3,2.6-6.5,3.4-10.6,2.5-3.9-.9-6.7-2.9-8.3-6.2l-1.2,3.5-6.8-1.5L394.4,0l7.5,1.6-3.7,17.3c2.7-2.1,5.9-2.7,9.6-1.9,4.1.9,7,3.1,8.7,6.6,1.7,3.5,1.9,8,.7,13.5v.4ZM409.7,35.3c.8-3.6.7-6.5-.1-8.6-.9-2.1-2.6-3.4-5-3.9-3.3-.7-5.9.2-7.8,2.8l-3,13.8c.7,3.2,2.7,5.2,6,5.9,2.4.5,4.4,0,6-1.5,1.7-1.5,2.9-4,3.7-7.5l.2-1Z"/>
    </g>
  </g>
  <g class="st4">
    <g class="st4">
      <path class="st0" d="M456.7,53.1c-2.1,4.5-5.1,7.5-9,9-3.9,1.5-8.4,1.4-13.3-.4-3.5-1.2-6.2-3.2-8.3-5.7-2.1-2.6-3.3-5.7-3.6-9.2-.4-3.5.2-7.3,1.5-11.4l1.5-4.1c1.5-4.1,3.5-7.5,6.1-10.1,2.6-2.6,5.5-4.3,8.8-5,3.3-.7,6.8-.4,10.3.8,4.8,1.7,8.2,4.4,10.2,8,2,3.6,2.4,7.9,1.2,12.9l-7.5-2.7c.8-3.3.7-5.8-.3-7.7-1-1.9-2.9-3.4-5.7-4.4-3.3-1.2-6.2-.9-8.9.9-2.6,1.8-4.8,5-6.5,9.6l-1.4,3.9c-1.7,4.7-2.1,8.6-1.3,11.7.8,3.1,2.8,5.2,6.1,6.4,3,1.1,5.4,1.2,7.4.4,2-.8,3.7-2.7,5.2-5.7l7.5,2.7Z"/>
    </g>
  </g>
  <g class="st4">
    <g class="st4">
      <path class="st0" d="M473.7,78.5c0-.7.2-1.8.7-3.3-3.3,1.2-6.6,1-9.8-.7-3.1-1.6-5.1-3.7-6.2-6.5-1.1-2.7-.9-5.4.4-8,1.7-3.3,4.1-5.2,7.4-5.7,3.3-.5,7.2.4,11.7,2.7l4.2,2.1,1-2c.8-1.6,1-3.1.6-4.5-.4-1.4-1.5-2.6-3.3-3.5-1.6-.8-3-1.1-4.4-.8-1.4.3-2.4,1-3,2.2l-6.9-3.5c.9-1.7,2.2-3,4.1-3.9,1.9-.9,4-1.3,6.3-1.1,2.3.1,4.7.8,7,2,3.6,1.8,6,4.2,7.2,7.1s1,6-.6,9.3l-7,13.8c-1.4,2.8-2.1,5.1-2.2,7.2l-.2.5-7-3.6ZM468.7,69.7c1.4.7,2.8,1,4.3,1,1.5,0,2.9-.5,4.1-1.3l2.9-5.8-3.7-1.9c-2.5-1.3-4.7-1.8-6.4-1.6-1.7.2-3,1.2-3.8,2.8-.7,1.3-.8,2.6-.3,3.8.5,1.2,1.5,2.2,2.9,3Z"/>
    </g>
  </g>
  <g class="st4">
    <g class="st4">
      <path class="st0" d="M514.6,71.3c-.8-.7-1.6-1.3-2.5-1.9-3-1.9-5.7-2-8.2-.4l-12.5,19.9-6.5-4.1,18.3-29,6.2,3.9-1.9,3.3c3.2-1.5,6.1-1.4,8.9.4.9.6,1.6,1.2,2.1,1.8l-3.9,6.1Z"/>
    </g>
  </g>
  <g class="st4">
    <g class="st4">
      <path class="st0" d="M513.8,105.4c-3.9-3-6.1-6.6-6.6-10.9s.8-8.5,3.9-12.5l.6-.8c2.1-2.7,4.5-4.7,7.2-6.1,2.7-1.3,5.4-1.9,8.3-1.6,2.8.3,5.4,1.3,7.7,3.1,3.7,2.8,5.7,6.2,5.9,10.1.2,3.9-1.4,8-4.7,12.4l-1.9,2.5-17.8-13.7c-1.5,2.4-2.2,4.7-1.8,7.1.3,2.3,1.5,4.2,3.5,5.8,2.8,2.2,6,2.8,9.5,1.9l.9,5.7c-2.3.8-4.8.9-7.3.4-2.5-.5-4.9-1.6-7.2-3.4ZM531,81.5c-1.7-1.3-3.5-1.7-5.4-1.4-1.9.4-3.8,1.5-5.7,3.4l11.7,8.9.3-.5c1.4-2.2,2.1-4.1,1.9-5.9-.2-1.8-1.1-3.3-2.8-4.6Z"/>
    </g>
  </g>
  <g class="st4">
    <g class="st4">
      <path class="st0" d="M564.9,138.2l-12.1-13.2-10.5,4.5-5.6-6.2,45.9-18.2,4.9,5.3-22.4,44.1-5.6-6.2,5.4-10ZM559.1,122.3l9,9.9,9.7-17.9-18.7,8Z"/>
    </g>
  </g>
  <g class="st4">
    <g class="st4">
      <path class="st0" d="M580.7,171.4c-3.5-.3-6.4-2.2-8.8-5.6-2.1-3-2.9-6-2.2-8.8.7-2.8,2.7-5.4,6.1-7.8l18.2-12.8,4.4,6.3-18.1,12.7c-3.6,2.5-4.3,5.2-2.2,8.2,2.2,3.1,4.7,4.4,7.7,3.9l20.2-14.2,4.4,6.3-28.1,19.7-4.2-6,2.6-2.1Z"/>
    </g>
  </g>
  <g class="st4">
    <g class="st4">
      <path class="st0" d="M627.1,172l-7.3,4.1,3,5.3-5,2.8-3-5.3-16.7,9.5c-1.1.7-1.8,1.3-2.1,2.1-.2.7,0,1.7.6,2.8.4.8,1,1.5,1.6,2.2l-5.2,3c-1.3-1.3-2.3-2.6-3.1-4-2.9-5.1-1.6-9.3,4.1-12.6l16.9-9.6-2.8-4.9,5-2.8,2.8,4.9,7.3-4.1,3.8,6.7Z"/>
    </g>
  </g>
  <g class="st4">
    <g class="st4">
      <path class="st0" d="M610,192.5c3.1-1.4,6.1-2,9.1-1.9s5.7.9,8,2.5c2.3,1.6,4.1,3.8,5.4,6.7,1.9,4.2,2.1,8.3.6,12.1-1.5,3.9-4.5,6.9-8.9,9.2l-1.6.8c-3.1,1.4-6.1,2.1-9.1,2-3,0-5.6-.9-7.9-2.5-2.3-1.6-4.2-3.8-5.5-6.7-2-4.4-2.1-8.6-.4-12.6,1.7-4,5-7.1,9.9-9.3l.3-.2ZM612.5,199.8c-3.2,1.5-5.4,3.3-6.7,5.4s-1.3,4.4-.2,6.8c1.1,2.4,2.8,3.8,5.3,4.3,2.4.5,5.5,0,9-1.7,3.2-1.4,5.4-3.3,6.6-5.5,1.2-2.2,1.3-4.5.3-6.8-1-2.3-2.8-3.7-5.2-4.2-2.4-.5-5.5,0-9.1,1.7Z"/>
    </g>
  </g>
  <g class="st4">
    <g class="st4">
      <path class="st0" d="M609.5,235.8l27.1-9.2-1.7-5,5.4-1.8,1.7,5,3-1c3.6-1.2,6.7-1.2,9.4.2,2.6,1.3,4.6,3.8,5.8,7.4.4,1.3.7,2.7.9,4.3l-5.8,1.8c-.1-.9-.4-1.8-.7-2.9-1.2-3.5-3.6-4.6-7.2-3.4l-2.9,1,2.3,6.6-5.4,1.8-2.3-6.6-27.1,9.2-2.5-7.3Z"/>
    </g>
  </g>
  <g class="st4">
    <g class="st4">
      <path class="st0" d="M617.4,261.7l-2-7.4,33.1-9,2,7.4-33.1,9ZM657,242.4c1.1-.3,2.2-.2,3.1.3,1,.5,1.6,1.5,2,2.8.4,1.3.3,2.5-.3,3.4-.6.9-1.4,1.6-2.5,1.9-1.1.3-2.2.2-3.1-.3-.9-.5-1.6-1.5-2-2.8s-.3-2.5.3-3.4c.5-.9,1.4-1.5,2.5-1.8Z"/>
    </g>
  </g>
  <g class="st4">
    <g class="st4">
      <path class="st0" d="M635.8,276.4l-4.1-2.7-11,2-1.4-7.6,47.9-8.9,1.4,7.6-27.6,5.1,3.4,1.8,12.2,7.4,1.7,9.1-16.4-9.9-17.1,17.5-1.6-8.8,12.6-12.7Z"/>
    </g>
  </g>
  <g class="st4">
    <g class="st4">
      <path class="st0" d="M635.5,318.1c1.4-.1,2.4-.7,3-1.9.6-1.2,1.1-3.1,1.5-5.8.4-2.7.9-4.9,1.6-6.7,1.6-4,4.1-6.1,7.6-6.4,3-.2,5.5.8,7.7,3.2,2.2,2.3,3.4,5.4,3.7,9.3.3,4.1-.5,7.5-2.3,10.1-1.8,2.7-4.4,4.1-7.6,4.4l-.6-7.7c1.5-.1,2.7-.8,3.6-1.9s1.3-2.7,1.1-4.5c-.1-1.7-.6-3-1.5-4-.9-1-1.9-1.5-3.3-1.4-1.2,0-2.1.7-2.6,1.7-.6,1-1.1,3.1-1.5,6.2-.4,3.1-1.1,5.5-1.8,7.3-.8,1.8-1.8,3.1-3,4.1-1.2.9-2.8,1.5-4.6,1.6-3.1.2-5.7-.9-7.8-3.3-2.1-2.4-3.3-5.7-3.6-9.8-.2-2.8.1-5.3,1-7.6.8-2.3,2.1-4.1,3.8-5.4,1.7-1.4,3.5-2.1,5.6-2.3l.6,7.5c-1.8.2-3.2,1-4,2.4-.9,1.3-1.3,3.1-1.1,5.1.2,2,.7,3.5,1.5,4.5.8,1,1.9,1.5,3.1,1.4Z"/>
    </g>
  </g>
  <g class="st4">
    <g class="st4">
      <path class="st0" d="M626.1,351.6c.7-.3,1.7-.6,3.2-.8-2.5-2.5-3.6-5.6-3.5-9.1.1-3.4,1.2-6.2,3.2-8.3,2-2.1,4.5-3.1,7.4-3,3.7.1,6.4,1.6,8.3,4.4,1.9,2.8,2.7,6.7,2.5,11.8l-.2,4.7h2.3c1.8.1,3.2-.3,4.3-1.3,1.1-1,1.7-2.4,1.8-4.5,0-1.8-.3-3.2-1.2-4.4-.8-1.2-1.9-1.8-3.3-1.8l.3-7.7c1.9,0,3.6.8,5.2,2.1,1.6,1.3,2.8,3,3.7,5.2.9,2.2,1.2,4.6,1.1,7.2-.1,4-1.3,7.2-3.4,9.5-2.1,2.3-5,3.4-8.6,3.4l-15.5-.6c-3.1-.1-5.6.2-7.4,1h-.5s.3-7.9.3-7.9ZM631.9,343.3c0,1.5.3,3,1,4.3.7,1.4,1.6,2.4,2.9,3.1l6.5.2v-4.2c.2-2.9-.2-5-1.1-6.5-.9-1.5-2.3-2.2-4.1-2.3-1.5,0-2.7.4-3.6,1.3-.9,1-1.4,2.3-1.5,3.9Z"/>
    </g>
  </g>
  <g class="st4">
    <g class="st4">
      <path class="st0" d="M622.2,384.5c.7-.2,1.8-.4,3.3-.4-2.2-2.8-3-6-2.5-9.5.5-3.4,1.9-6,4.2-7.9,2.3-1.9,4.8-2.6,7.7-2.1,3.6.5,6.2,2.3,7.7,5.3,1.5,3,1.9,7,1.2,12l-.7,4.7,2.2.3c1.8.3,3.2,0,4.4-.8s2-2.2,2.3-4.2c.3-1.7,0-3.2-.7-4.5-.7-1.2-1.7-2-3.1-2.2l1.1-7.6c1.9.3,3.5,1.2,4.9,2.6s2.5,3.3,3.1,5.6c.6,2.3.7,4.7.3,7.3-.6,4-2.1,7-4.4,9.1-2.4,2.1-5.3,2.9-9,2.4l-15.3-2.3c-3.1-.5-5.6-.4-7.5.2h-.5c0,0,1.2-7.9,1.2-7.9ZM629,376.9c-.2,1.5,0,3,.5,4.4.5,1.4,1.4,2.6,2.5,3.4l6.4,1,.6-4.1c.4-2.8.3-5-.5-6.6-.8-1.6-2.1-2.5-3.9-2.8-1.5-.2-2.7,0-3.7.9-1,.8-1.6,2.1-1.9,3.7Z"/>
    </g>
  </g>
  <g class="st4">
    <g class="st4">
      <path class="st0" d="M651.4,413.8l-3.5-.8c2,3.1,2.3,6.7,1.1,10.7-1.4,4.4-4,6.9-7.8,7.4,2.6,3.4,3.3,7.3,1.9,11.6-1.1,3.6-3,6-5.5,7.2-2.5,1.1-5.8,1.1-9.7,0l-21.6-6.7,2.3-7.4,21.3,6.6c2.1.6,3.7.7,5,0s2.2-2,2.9-4.1c.5-1.7.5-3.2,0-4.5-.6-1.3-1.5-2.4-2.8-3.3l-22.5-6.9,2.3-7.4,21.6,6.7c3.9,1.1,6.4-.3,7.6-4.1.9-3,.4-5.4-1.7-7.4l-23.8-7.4,2.3-7.4,32.8,10.2-2.1,6.9Z"/>
    </g>
  </g>
  <g class="st4">
    <g class="st4">
      <path class="st0" d="M620,454.4c3,1.5,5.5,3.4,7.3,5.8,1.8,2.4,2.9,5,3.1,7.8.2,2.8-.3,5.6-1.7,8.4-2,4.2-5,6.9-9,8.2-3.9,1.3-8.2,1-12.7-1l-1.6-.8c-3-1.5-5.5-3.4-7.3-5.7s-2.9-4.9-3.1-7.7c-.2-2.8.3-5.7,1.7-8.5,2.1-4.4,5.3-7.1,9.4-8.3,4.2-1.2,8.7-.6,13.5,1.7l.3.2ZM616,461c-3.2-1.5-6-2.1-8.4-1.7-2.4.4-4.2,1.8-5.4,4.2-1.1,2.3-1.1,4.6,0,6.8,1.2,2.2,3.5,4.1,7.1,5.9,3.1,1.5,5.9,2.1,8.4,1.6,2.5-.4,4.3-1.8,5.4-4.1,1.1-2.3,1.1-4.5,0-6.7-1.1-2.2-3.5-4.2-7.1-5.9Z"/>
    </g>
  </g>
  <g class="st4">
    <g class="st4">
      <path class="st0" d="M266.6,633.4c.9-5.2,2.9-9.2,5.8-11.9,2.9-2.7,6.4-3.7,10.5-2.9,4,.7,6.8,2.7,8.5,5.9l1-3.6,6.9,1.2-8.6,48-7.6-1.4,3.1-17.4c-2.6,2.2-5.8,3-9.5,2.3-4.1-.7-7.1-2.8-8.9-6.3-1.8-3.5-2.2-8-1.2-13.5v-.4ZM274,635.4c-.7,3.7-.5,6.5.5,8.6,1,2.1,2.7,3.3,5.1,3.8,3.3.6,5.9-.4,7.7-3.1l2.5-13.9c-.8-3.2-2.9-5.1-6.2-5.7-2.4-.4-4.4.1-6,1.7-1.6,1.5-2.8,4.1-3.4,7.7l-.2,1Z"/>
    </g>
  </g>
  <g class="st4">
    <g class="st4">
      <path class="st0" d="M226.5,619.3c1.9-4.6,4.8-7.7,8.7-9.4,3.9-1.7,8.3-1.7,13.3-.1,3.5,1.1,6.3,2.9,8.5,5.4,2.1,2.5,3.5,5.5,3.9,9.1.5,3.5.1,7.3-1.1,11.4l-1.3,4.1c-1.3,4.2-3.2,7.6-5.7,10.3-2.5,2.7-5.4,4.5-8.7,5.3-3.3.8-6.7.7-10.4-.5-4.9-1.5-8.4-4.1-10.5-7.7-2.1-3.6-2.7-7.8-1.6-12.8l7.6,2.4c-.6,3.3-.4,5.9.6,7.7,1,1.9,3,3.3,5.9,4.2,3.3,1.1,6.3.6,8.8-1.2,2.6-1.9,4.6-5.1,6.1-9.8l1.2-3.9c1.5-4.8,1.8-8.7.9-11.7-.9-3-3-5.1-6.3-6.1-3-1-5.5-1-7.4-.1-1.9.9-3.6,2.8-5,5.8l-7.6-2.4Z"/>
    </g>
  </g>
  <g class="st4">
    <g class="st4">
      <path class="st0" d="M208.6,594.5c0,.7-.1,1.8-.5,3.3,3.3-1.3,6.6-1.2,9.8.3,3.1,1.5,5.3,3.5,6.4,6.2,1.2,2.7,1.1,5.4-.1,8-1.5,3.3-4,5.3-7.2,5.9-3.3.6-7.2-.1-11.8-2.2l-4.3-2-.9,2c-.7,1.6-.9,3.1-.4,4.5.5,1.4,1.6,2.5,3.4,3.4,1.6.7,3.1.9,4.5.6,1.4-.3,2.4-1.1,2.9-2.3l7,3.2c-.8,1.7-2.1,3-3.9,4-1.8,1-3.9,1.4-6.2,1.4-2.3,0-4.7-.6-7.1-1.8-3.6-1.7-6.1-4-7.5-6.8-1.3-2.8-1.2-5.9.2-9.3l6.5-14.1c1.3-2.8,1.9-5.2,1.9-7.3l.2-.5,7.1,3.3ZM213.9,603.1c-1.4-.6-2.8-.9-4.4-.8-1.5.1-2.9.6-4,1.4l-2.7,5.9,3.8,1.7c2.6,1.2,4.8,1.7,6.5,1.4,1.7-.3,3-1.3,3.7-2.9.6-1.3.7-2.6.1-3.8-.5-1.2-1.5-2.2-3-2.9Z"/>
    </g>
  </g>
  <g class="st4">
    <g class="st4">
      <path class="st0" d="M167.9,603.2c.8.7,1.7,1.3,2.6,1.8,3.1,1.8,5.8,1.8,8.2,0l11.8-20.3,6.7,3.9-17.3,29.7-6.4-3.7,1.8-3.4c-3.1,1.6-6.1,1.6-8.9,0-1-.6-1.7-1.1-2.1-1.8l3.7-6.2Z"/>
    </g>
  </g>
  <g class="st4">
    <g class="st4">
      <path class="st0" d="M167.5,569c4,2.8,6.3,6.4,7,10.7.7,4.3-.5,8.5-3.4,12.7l-.6.8c-2,2.8-4.3,4.9-6.9,6.3-2.6,1.4-5.4,2.1-8.2,1.9-2.8-.2-5.4-1.1-7.8-2.8-3.8-2.7-5.9-6-6.2-9.9-.3-3.9,1.1-8.1,4.2-12.5l1.8-2.5,18.3,13c1.5-2.4,2-4.8,1.6-7.1-.4-2.3-1.6-4.2-3.7-5.7-2.9-2-6.1-2.6-9.5-1.5l-1.1-5.6c2.3-.9,4.7-1.1,7.3-.7,2.5.4,5,1.4,7.3,3.1ZM151.2,593.5c1.7,1.2,3.5,1.6,5.5,1.2,1.9-.5,3.8-1.7,5.6-3.6l-12-8.5-.3.5c-1.4,2.2-1.9,4.2-1.7,6,.2,1.8,1.2,3.3,2.9,4.5Z"/>
    </g>
  </g>
  <g class="st4">
    <g class="st4">
      <path class="st0" d="M115.3,538.1l12.5,12.8,10.3-4.9,5.8,6-45.2,19.9-5-5.1,20.8-44.8,5.9,6-5,10.2ZM121.6,553.8l-9.4-9.6-9,18.2,18.4-8.6Z"/>
    </g>
  </g>
  <g class="st4">
    <g class="st4">
      <path class="st0" d="M98.3,505.5c3.5.2,6.5,2,9,5.3,2.2,3,3.1,5.9,2.5,8.7-.6,2.8-2.5,5.5-5.8,8l-17.7,13.4-4.7-6.2,17.7-13.4c3.5-2.6,4.1-5.4,1.9-8.3-2.3-3-4.9-4.2-7.8-3.6l-19.7,14.9-4.7-6.2,27.4-20.7,4.4,5.8-2.6,2.2Z"/>
    </g>
  </g>
  <g class="st4">
    <g class="st4">
      <path class="st0" d="M52,506.6l7.1-4.4-3.2-5.2,4.9-3,3.2,5.2,16.3-10.1c1.1-.7,1.8-1.4,2-2.2.2-.7,0-1.7-.7-2.8s-1-1.5-1.7-2.1l5.1-3.1c1.3,1.2,2.4,2.5,3.3,3.9,3.1,5,1.9,9.3-3.7,12.7l-16.5,10.2,3,4.8-4.9,3-3-4.8-7.1,4.4-4.1-6.6Z"/>
    </g>
  </g>
  <g class="st4">
    <g class="st4">
      <path class="st0" d="M68.3,485.5c-3,1.5-6,2.3-9,2.3-3,0-5.7-.7-8.1-2.3-2.4-1.5-4.3-3.7-5.7-6.5-2.1-4.1-2.4-8.2-1-12.1,1.4-3.9,4.2-7.1,8.5-9.5l1.6-.8c3-1.5,6-2.3,9-2.3,3,0,5.6.7,8,2.2,2.4,1.5,4.3,3.7,5.7,6.5,2.2,4.3,2.4,8.5.9,12.6-1.6,4-4.8,7.3-9.6,9.7l-.3.2ZM65.5,478.3c3.2-1.6,5.3-3.5,6.5-5.7,1.1-2.2,1.1-4.5,0-6.8s-3-3.7-5.4-4.1-5.4.3-9,2c-3.1,1.5-5.2,3.4-6.4,5.7s-1.2,4.5,0,6.8c1.1,2.3,2.9,3.6,5.4,4,2.4.4,5.5-.2,9-2Z"/>
    </g>
  </g>
  <g class="st4">
    <g class="st4">
      <path class="st0" d="M50.5,439.4l4.5,2,10.5-3.8,2.6,7.3-45.9,16.6-2.6-7.3,26.4-9.5-3.7-1.2-13.3-5.3-3.1-8.7,17.8,7.1,14-20.1,3,8.4-10.4,14.6Z"/>
    </g>
  </g>
  <g class="st4">
    <g class="st4">
      <path class="st0" d="M40.8,420.3c-3.3.8-6.4.8-9.3.1-2.9-.7-5.4-2-7.3-4-2-2-3.3-4.5-4-7.6-1.1-4.5-.5-8.5,1.8-12,2.2-3.5,5.7-5.9,10.5-7.3l1.8-.4c3.3-.8,6.4-.8,9.3-.2,2.9.7,5.3,2,7.3,4,2,2,3.3,4.6,4,7.7,1.1,4.7.4,8.9-2.1,12.4-2.5,3.6-6.3,6-11.6,7.2h-.4ZM39.7,412.6c3.4-.8,6-2.1,7.6-4,1.6-1.9,2.1-4.1,1.5-6.6-.6-2.5-2-4.3-4.4-5.2-2.3-.9-5.4-1-9.2,0-3.4.8-5.9,2.1-7.5,4.1-1.6,1.9-2.2,4.1-1.6,6.6.6,2.5,2,4.2,4.3,5.2,2.3,1,5.4,1,9.2.1Z"/>
    </g>
  </g>
  <g class="st4">
    <g class="st4">
      <path class="st0" d="M20.7,366.3c0,1,0,2.1.2,3.1.5,3.5,2.1,5.7,5,6.5l23.3-3.1,1,7.6-34,4.6-1-7.3,3.8-.7c-3.2-1.4-5-3.8-5.5-7.1-.1-1.1-.1-2,0-2.8l7.2-.9Z"/>
    </g>
  </g>
  <g class="st4">
    <g class="st4">
      <path class="st0" d="M4.4,362.7c-1.2,0-2.2-.2-3-.9-.8-.7-1.3-1.7-1.4-3.1-.1-1.4.2-2.5.9-3.3.7-.8,1.7-1.3,2.9-1.4,1.2,0,2.2.2,3,.9.8.7,1.3,1.8,1.4,3.1s-.2,2.5-.9,3.3c-.7.8-1.7,1.2-2.8,1.3ZM12.7,353.7l37.3-2.7c3.5-.3,6.2.4,8.2,2,2,1.6,3.1,4.1,3.3,7.4.1,1.4,0,2.8-.2,4.1l-6.1.4c.1-.8.2-1.7,0-2.7-.2-2.6-1.7-3.8-4.5-3.6l-37.6,2.7-.6-7.7Z"/>
    </g>
  </g>
  <g class="st4">
    <g class="st4">
      <path class="st0" d="M46.6,324.2c-.7.3-1.7.6-3.2.9,2.5,2.5,3.8,5.5,3.8,9.1,0,3.4-1,6.3-3,8.4-2,2.2-4.4,3.2-7.3,3.2-3.7,0-6.5-1.4-8.4-4.2s-2.9-6.6-2.8-11.7v-4.7s-2.2,0-2.2,0c-1.8,0-3.2.5-4.3,1.5-1.1,1-1.6,2.5-1.6,4.5,0,1.8.4,3.2,1.3,4.3.9,1.1,2,1.7,3.3,1.7v7.7c-2,0-3.7-.7-5.3-1.9-1.6-1.3-2.9-3-3.8-5.1-.9-2.2-1.4-4.6-1.3-7.2,0-4,1.1-7.2,3.1-9.6,2-2.4,4.9-3.6,8.6-3.6l15.5.2c3.1,0,5.6-.4,7.4-1.2h.5s0,7.9,0,7.9ZM41,332.6c0-1.5-.3-3-1.1-4.3-.7-1.4-1.7-2.4-3-3.1h-6.5c0,0,0,4.1,0,4.1,0,2.9.4,5,1.4,6.5,1,1.4,2.4,2.2,4.2,2.2,1.5,0,2.7-.5,3.6-1.4.9-1,1.3-2.3,1.4-3.9Z"/>
    </g>
  </g>
  <g class="st4">
    <g class="st4">
      <path class="st0" d="M49.6,291.2c-.7.3-1.8.4-3.3.5,2.2,2.8,3.1,5.9,2.7,9.4-.4,3.4-1.7,6.1-4,8-2.2,1.9-4.8,2.7-7.6,2.3-3.6-.5-6.3-2.1-7.9-5.1-1.6-2.9-2.1-6.9-1.5-11.9l.6-4.7-2.2-.3c-1.8-.2-3.2,0-4.4,1-1.2.9-1.9,2.3-2.1,4.3-.2,1.7,0,3.2.8,4.4.7,1.2,1.8,1.9,3.1,2.1l-.9,7.7c-1.9-.2-3.5-1.1-5-2.5-1.5-1.4-2.5-3.3-3.2-5.5s-.8-4.7-.5-7.3c.5-4,1.9-7,4.2-9.2,2.3-2.1,5.3-3,8.9-2.6l15.4,1.9c3.1.4,5.6.3,7.5-.4h.5c0,0-1,7.9-1,7.9ZM43,299c.2-1.5,0-3-.6-4.4-.6-1.4-1.4-2.5-2.6-3.4l-6.4-.8-.5,4.1c-.4,2.8-.1,5,.7,6.6.8,1.6,2.1,2.4,3.9,2.7,1.5.2,2.7-.2,3.7-1,1-.9,1.6-2.1,1.8-3.8Z"/>
    </g>
  </g>
  <g class="st4">
    <g class="st4">
      <path class="st0" d="M19.6,262.7l3.5.8c-2.1-3.1-2.5-6.6-1.4-10.7,1.2-4.4,3.8-7,7.6-7.6-2.7-3.4-3.4-7.2-2.2-11.6,1-3.6,2.8-6.1,5.3-7.3,2.5-1.2,5.7-1.3,9.7-.2l21.7,6.1-2.1,7.4-21.5-6c-2.1-.6-3.8-.6-5,0-1.2.6-2.2,2-2.7,4.1-.5,1.7-.4,3.2.2,4.5.6,1.3,1.6,2.4,2.9,3.2l22.7,6.3-2.1,7.4-21.8-6.1c-3.9-1-6.4.4-7.5,4.3-.8,3-.2,5.4,1.9,7.3l24,6.7-2.1,7.4-33.1-9.3,2-7Z"/>
    </g>
  </g>
  <g class="st4">
    <g class="st4">
      <path class="st0" d="M49.9,221.3c-3.1-1.4-5.5-3.3-7.4-5.6-1.9-2.3-3-4.9-3.3-7.7-.3-2.8.2-5.6,1.5-8.5,1.9-4.2,4.8-7,8.8-8.4,3.9-1.4,8.2-1.2,12.7.7l1.7.7c3.1,1.4,5.6,3.3,7.5,5.5,1.9,2.3,3,4.8,3.3,7.6.3,2.8-.2,5.7-1.5,8.5-2,4.4-5.1,7.3-9.2,8.6s-8.7.8-13.5-1.4l-.3-.2ZM53.7,214.6c3.2,1.5,6,1.9,8.5,1.4,2.4-.5,4.2-1.9,5.3-4.3s1-4.6-.3-6.8-3.7-4.1-7.2-5.7c-3.2-1.4-6-1.9-8.4-1.4-2.5.5-4.2,1.9-5.3,4.3-1,2.3-1,4.5.2,6.7,1.2,2.2,3.6,4.1,7.2,5.7Z"/>
    </g>
  </g>
  <path class="st1" d="M92.2,151.7c6.3-9.4,13.3-16.4,20.3-25.4,5-6,11-11,16-16,57-52,131-79,207.1-80.5"/>
  <path class="st1" d="M346,638.7c88.5-.4,172.5-46.4,228.1-113.1"/>
</svg>